<svg xmlns="http://www.w3.org/2000/svg" viewBox="0 0 480 447" role="img" aria-labelledby="title desc"><title id="title">Mia liest eine Webseite</title><desc id="desc">Dasselbe Notebook mit Bildschirmrahmen, Tastatur und Touchpad. Auf dem Bildschirm ist Browser geöffnet. Eigene vereinfachte Darstellung.</desc><rect width="480" height="380" rx="15" fill="#f1f5f8"/><g font-family="Arial,sans-serif" fill="#243443"><rect x="18" y="20" width="444" height="285" rx="16" fill="#263744"/><circle cx="240" cy="27" r="2" fill="#7f939f"/><rect x="31" y="34" width="418" height="254" rx="3" fill="#fff"/><path d="M31 37q0-3 3-3h412q3 0 3 3v37H31z" fill="#dce7f0"/><rect x="44" y="44" width="25" height="22" rx="5" fill="#375d9b"/><text x="56" y="61" font-size="16" text-anchor="middle" fill="#fff" font-weight="700">B</text><text x="79" y="61" font-size="24" font-weight="700">Browser</text><path d="M408 48l10 10m0-10-10 10" stroke="#647d8f" stroke-width="2"/><rect x="31" y="74" width="418" height="38" fill="#eef2f6"/><path d="M50 90h-10l5-5m-5 5 5 5" stroke="#41586b" stroke-width="2" fill="none"/><rect x="64" y="79" width="374" height="27" rx="13" fill="#fff" stroke="#bccad6"/><text x="82" y="99" font-size="19" fill="#41586b">schule.example/tiere</text><rect x="31" y="112" width="418" height="143" fill="#fff"/><text x="53" y="141" font-size="27" font-weight="700">Tiere entdecken</text><rect x="53" y="154" width="95" height="85" rx="9" fill="#e5efdf"/><path d="M67 217l4-12 4 4 3-16 5 7 7-14 6 11 7-9 4 13 8-3 2 12 14 10-7 9H73z" fill="#896849"/><circle cx="119" cy="217" r="3" fill="#1e2b35"/><text x="167" y="174" font-size="23" font-weight="700">Der Igel</text><text x="167" y="202" font-size="21">Igel haben Stacheln.</text><text x="167" y="228" font-size="21">Sie fressen Insekten.</text><rect x="31" y="255" width="418" height="33" fill="#dce7f0"/><circle cx="48" cy="272" r="6" fill="#55728b"/><rect x="68" y="259" width="164" height="26" rx="5" fill="#dce7f0"/><text x="78" y="279" font-size="18">Taschenrechner</text><rect x="240" y="259" width="91" height="26" rx="5" fill="#fff"/><text x="249" y="279" font-size="18">Browser</text><text x="393" y="279" font-size="17">09:00</text><path d="M18 305h444l12 52q1 9-13 9H19q-14 0-13-9z" fill="#b9c6d0" stroke="#8295a5"/><rect x="49" y="316" width="26" height="7" rx="2" fill="#7a8995"/><rect x="81" y="316" width="26" height="7" rx="2" fill="#7a8995"/><rect x="113" y="316" width="26" height="7" rx="2" fill="#7a8995"/><rect x="145" y="316" width="26" height="7" rx="2" fill="#7a8995"/><rect x="177" y="316" width="26" height="7" rx="2" fill="#7a8995"/><rect x="209" y="316" width="26" height="7" rx="2" fill="#7a8995"/><rect x="241" y="316" width="26" height="7" rx="2" fill="#7a8995"/><rect x="273" y="316" width="26" height="7" rx="2" fill="#7a8995"/><rect x="305" y="316" width="26" height="7" rx="2" fill="#7a8995"/><rect x="337" y="316" width="26" height="7" rx="2" fill="#7a8995"/><rect x="369" y="316" width="26" height="7" rx="2" fill="#7a8995"/><rect x="401" y="316" width="26" height="7" rx="2" fill="#7a8995"/><rect x="49" y="327" width="26" height="7" rx="2" fill="#7a8995"/><rect x="81" y="327" width="26" height="7" rx="2" fill="#7a8995"/><rect x="113" y="327" width="26" height="7" rx="2" fill="#7a8995"/><rect x="145" y="327" width="26" height="7" rx="2" fill="#7a8995"/><rect x="177" y="327" width="26" height="7" rx="2" fill="#7a8995"/><rect x="209" y="327" width="26" height="7" rx="2" fill="#7a8995"/><rect x="241" y="327" width="26" height="7" rx="2" fill="#7a8995"/><rect x="273" y="327" width="26" height="7" rx="2" fill="#7a8995"/><rect x="305" y="327" width="26" height="7" rx="2" fill="#7a8995"/><rect x="337" y="327" width="26" height="7" rx="2" fill="#7a8995"/><rect x="369" y="327" width="26" height="7" rx="2" fill="#7a8995"/><rect x="401" y="327" width="26" height="7" rx="2" fill="#7a8995"/><rect x="49" y="338" width="26" height="7" rx="2" fill="#7a8995"/><rect x="81" y="338" width="26" height="7" rx="2" fill="#7a8995"/><rect x="113" y="338" width="26" height="7" rx="2" fill="#7a8995"/><rect x="145" y="338" width="26" height="7" rx="2" fill="#7a8995"/><rect x="177" y="338" width="26" height="7" rx="2" fill="#7a8995"/><rect x="209" y="338" width="26" height="7" rx="2" fill="#7a8995"/><rect x="241" y="338" width="26" height="7" rx="2" fill="#7a8995"/><rect x="273" y="338" width="26" height="7" rx="2" fill="#7a8995"/><rect x="305" y="338" width="26" height="7" rx="2" fill="#7a8995"/><rect x="337" y="338" width="26" height="7" rx="2" fill="#7a8995"/><rect x="369" y="338" width="26" height="7" rx="2" fill="#7a8995"/><rect x="401" y="338" width="26" height="7" rx="2" fill="#7a8995"/><rect x="194" y="350" width="92" height="9" rx="4" fill="#91a5b5"/></g><g font-family="Arial,sans-serif"><rect x="64" y="79" width="374" height="27" rx="13" fill="none" stroke="#ad650c" stroke-width="3"/><path d="M440 93h28v300H245v12" fill="none" stroke="#ad650c" stroke-width="2"/><circle cx="438" cy="93" r="4" fill="#ad650c"/><text x="240" y="426" font-size="23" font-weight="700" text-anchor="middle" fill="#70400a">Hier steht die Adresse der Webseite.</text></g></svg>