<svg xmlns="http://www.w3.org/2000/svg" viewBox="0 0 480 380" role="img" aria-labelledby="title desc"><title id="title">Mia rechnet</title><desc id="desc">Dasselbe Notebook mit Bildschirmrahmen, Tastatur und Touchpad. Auf dem Bildschirm ist Taschenrechner geöffnet. Eigene vereinfachte Darstellung.</desc><rect width="480" height="380" rx="15" fill="#f1f5f8"/><g font-family="Arial,sans-serif" fill="#243443"><rect x="18" y="20" width="444" height="285" rx="16" fill="#263744"/><circle cx="240" cy="27" r="2" fill="#7f939f"/><rect x="31" y="34" width="418" height="254" rx="3" fill="#fff"/><path d="M31 37q0-3 3-3h412q3 0 3 3v37H31z" fill="#dce7f0"/><rect x="44" y="44" width="25" height="22" rx="5" fill="#375d9b"/><text x="56" y="61" font-size="16" text-anchor="middle" fill="#fff" font-weight="700">=</text><text x="79" y="61" font-size="24" font-weight="700">Taschenrechner</text><path d="M408 48l10 10m0-10-10 10" stroke="#647d8f" stroke-width="2"/><rect x="31" y="74" width="418" height="181" fill="#f8fafb"/><text x="423" y="98" text-anchor="end" font-size="23" fill="#4b5864">6 + 4 =</text><text x="423" y="136" text-anchor="end" font-size="42" font-weight="700">10</text><rect x="61" y="145" width="89" height="29" rx="5" fill="#e7edf1"/><text x="105" y="167" text-anchor="middle" font-size="23" fill="#243443">7</text><rect x="159" y="145" width="89" height="29" rx="5" fill="#e7edf1"/><text x="203" y="167" text-anchor="middle" font-size="23" fill="#243443">8</text><rect x="257" y="145" width="89" height="29" rx="5" fill="#e7edf1"/><text x="301" y="167" text-anchor="middle" font-size="23" fill="#243443">9</text><rect x="355" y="145" width="89" height="29" rx="5" fill="#e7edf1"/><text x="399" y="167" text-anchor="middle" font-size="23" fill="#243443">−</text><rect x="61" y="181" width="89" height="29" rx="5" fill="#e7edf1"/><text x="105" y="203" text-anchor="middle" font-size="23" fill="#243443">4</text><rect x="159" y="181" width="89" height="29" rx="5" fill="#e7edf1"/><text x="203" y="203" text-anchor="middle" font-size="23" fill="#243443">5</text><rect x="257" y="181" width="89" height="29" rx="5" fill="#e7edf1"/><text x="301" y="203" text-anchor="middle" font-size="23" fill="#243443">6</text><rect x="355" y="181" width="89" height="29" rx="5" fill="#e7edf1"/><text x="399" y="203" text-anchor="middle" font-size="23" fill="#243443">+</text><rect x="61" y="217" width="89" height="29" rx="5" fill="#e7edf1"/><text x="105" y="239" text-anchor="middle" font-size="23" fill="#243443">0</text><rect x="159" y="217" width="89" height="29" rx="5" fill="#e7edf1"/><text x="203" y="239" text-anchor="middle" font-size="23" fill="#243443">C</text><rect x="257" y="217" width="89" height="29" rx="5" fill="#375d9b"/><text x="301" y="239" text-anchor="middle" font-size="23" fill="#fff">=</text><rect x="355" y="217" width="89" height="29" rx="5" fill="#e7edf1"/><text x="399" y="239" text-anchor="middle" font-size="23" fill="#243443">×</text><rect x="31" y="255" width="418" height="33" fill="#dce7f0"/><circle cx="48" cy="272" r="6" fill="#55728b"/><rect x="68" y="259" width="164" height="26" rx="5" fill="#fff"/><text x="78" y="279" font-size="18">Taschenrechner</text><rect x="240" y="259" width="91" height="26" rx="5" fill="#dce7f0"/><text x="249" y="279" font-size="18">Browser</text><text x="393" y="279" font-size="17">09:00</text><path d="M18 305h444l12 52q1 9-13 9H19q-14 0-13-9z" fill="#b9c6d0" stroke="#8295a5"/><rect x="49" y="316" width="26" height="7" rx="2" fill="#7a8995"/><rect x="81" y="316" width="26" height="7" rx="2" fill="#7a8995"/><rect x="113" y="316" width="26" height="7" rx="2" fill="#7a8995"/><rect x="145" y="316" width="26" height="7" rx="2" fill="#7a8995"/><rect x="177" y="316" width="26" height="7" rx="2" fill="#7a8995"/><rect x="209" y="316" width="26" height="7" rx="2" fill="#7a8995"/><rect x="241" y="316" width="26" height="7" rx="2" fill="#7a8995"/><rect x="273" y="316" width="26" height="7" rx="2" fill="#7a8995"/><rect x="305" y="316" width="26" height="7" rx="2" fill="#7a8995"/><rect x="337" y="316" width="26" height="7" rx="2" fill="#7a8995"/><rect x="369" y="316" width="26" height="7" rx="2" fill="#7a8995"/><rect x="401" y="316" width="26" height="7" rx="2" fill="#7a8995"/><rect x="49" y="327" width="26" height="7" rx="2" fill="#7a8995"/><rect x="81" y="327" width="26" height="7" rx="2" fill="#7a8995"/><rect x="113" y="327" width="26" height="7" rx="2" fill="#7a8995"/><rect x="145" y="327" width="26" height="7" rx="2" fill="#7a8995"/><rect x="177" y="327" width="26" height="7" rx="2" fill="#7a8995"/><rect x="209" y="327" width="26" height="7" rx="2" fill="#7a8995"/><rect x="241" y="327" width="26" height="7" rx="2" fill="#7a8995"/><rect x="273" y="327" width="26" height="7" rx="2" fill="#7a8995"/><rect x="305" y="327" width="26" height="7" rx="2" fill="#7a8995"/><rect x="337" y="327" width="26" height="7" rx="2" fill="#7a8995"/><rect x="369" y="327" width="26" height="7" rx="2" fill="#7a8995"/><rect x="401" y="327" width="26" height="7" rx="2" fill="#7a8995"/><rect x="49" y="338" width="26" height="7" rx="2" fill="#7a8995"/><rect x="81" y="338" width="26" height="7" rx="2" fill="#7a8995"/><rect x="113" y="338" width="26" height="7" rx="2" fill="#7a8995"/><rect x="145" y="338" width="26" height="7" rx="2" fill="#7a8995"/><rect x="177" y="338" width="26" height="7" rx="2" fill="#7a8995"/><rect x="209" y="338" width="26" height="7" rx="2" fill="#7a8995"/><rect x="241" y="338" width="26" height="7" rx="2" fill="#7a8995"/><rect x="273" y="338" width="26" height="7" rx="2" fill="#7a8995"/><rect x="305" y="338" width="26" height="7" rx="2" fill="#7a8995"/><rect x="337" y="338" width="26" height="7" rx="2" fill="#7a8995"/><rect x="369" y="338" width="26" height="7" rx="2" fill="#7a8995"/><rect x="401" y="338" width="26" height="7" rx="2" fill="#7a8995"/><rect x="194" y="350" width="92" height="9" rx="4" fill="#91a5b5"/></g></svg>